<?xml version="1.0" standalone="no"?>
<!DOCTYPE svg PUBLIC "-//W3C//DTD SVG 20010904//EN"
 "http://www.w3.org/TR/2001/REC-SVG-20010904/DTD/svg10.dtd">
<svg version="1.0" xmlns="http://www.w3.org/2000/svg"
 width="633.000000pt" height="633.000000pt" viewBox="0 0 633.000000 633.000000"
 preserveAspectRatio="xMidYMid meet">
<metadata>
Created by potrace 1.11, written by Peter Selinger 2001-2013
</metadata>
<g transform="translate(0.000000,633.000000) scale(0.100000,-0.100000)"
fill="#000000" stroke="none">
<path d="M350 6306 c-97 -33 -129 -53 -201 -125 -71 -71 -99 -117 -129 -214
-19 -61 -20 -115 -20 -2798 0 -3003 -5 -2771 58 -2894 32 -64 143 -175 208
-208 121 -61 -89 -57 2894 -57 2983 0 2773 -4 2894 57 65 33 176 144 209 209
60 119 57 9 57 1910 l0 1739 -265 -265 -265 -265 0 -1427 0 -1428 -2630 0
-2630 0 0 2630 0 2630 1428 0 1427 0 265 265 265 265 -1750 -1 -1750 -1 -65
-22z"/>
<path d="M4975 6135 c-33 -13 -81 -39 -106 -57 -26 -18 -812 -793 -1748 -1721
l-1701 -1688 0 -635 0 -634 616 0 c382 0 622 4 634 10 10 5 611 609 1336 1342
725 733 1489 1506 1699 1718 403 408 417 425 450 551 19 71 19 180 0 254 -33
127 -59 159 -390 491 -294 296 -314 314 -389 350 -79 38 -82 39 -210 42 -120
2 -136 0 -191 -23z m685 -985 c0 -3 -617 -620 -1371 -1370 l-1371 -1363 -245
245 -246 246 1364 1376 1363 1377 253 -253 c139 -139 253 -255 253 -258z
m-3365 -2870 l370 -370 -373 0 -372 0 0 370 c0 204 1 370 3 370 1 0 169 -166
372 -370z"/>
</g>
</svg>
